<svg width="32" height="25" viewBox="0 0 32 25" fill="none" xmlns="http://www.w3.org/2000/svg">
<path d="M12.889 11.0318C14.6556 9.99545 15.5778 8.42727 15.5778 5.98636C15.5778 1.17273 12.6556 0 9.28342 0H0.00012207V24.1636H9.54453C13.1223 24.1636 16.4834 22.0568 16.4834 17.1477C16.4834 14.1136 15.3112 11.8705 12.889 11.0318ZM4.32788 4.125H8.38898C9.95008 4.125 11.3556 4.66364 11.3556 6.88636C11.3556 8.93863 10.2612 9.76364 8.71675 9.76364H4.32788V4.125ZM8.95564 20.0591H4.32788V13.4045H9.04453C10.9501 13.4045 12.1556 14.3795 12.1556 16.8545C12.1556 19.2955 10.7167 20.0591 8.95564 20.0591ZM28.8722 3.64773H20.8889V1.26818H28.8722V3.64773ZM32 15.6682C32 10.4932 29.5333 6.17727 25.0611 6.17727C20.7167 6.17727 17.7667 10.1864 17.7667 15.4364C17.7667 20.8841 20.5612 24.6205 25.0611 24.6205C28.4667 24.6205 30.6722 22.7386 31.7333 18.7364H28.2778C27.9056 20.2295 26.3722 21.0205 25.1834 21.0205C22.8889 21.0205 21.6834 19.3705 21.6834 16.5682H31.9667C31.9833 16.2818 32 15.975 32 15.6682ZM21.6889 13.5409C21.8167 11.2432 23.0611 9.80454 24.9389 9.80454C26.9056 9.80454 27.8945 11.2227 28.0611 13.5409H21.6889Z" fill="black"/>
</svg>
