<svg width="31" height="34" viewBox="0 0 31 34" fill="none" xmlns="http://www.w3.org/2000/svg">
<path d="M15.5 0C6.95325 0 0 7.58536 0 16.9091C0 26.2328 6.95325 33.8182 15.5 33.8182C24.0467 33.8182 31 26.2328 31 16.9091C31 7.58536 24.0467 0 15.5 0ZM25.7481 7.79768C27.5921 10.2554 28.7087 13.3857 28.7378 16.7946C28.3013 16.6939 23.9242 15.7254 19.5189 16.3298C19.1594 15.3724 18.8201 14.5302 18.3554 13.4924C23.2504 11.3122 25.469 8.20957 25.7481 7.79768ZM24.2763 6.1275C24.0382 6.49752 22.0452 9.41973 17.3375 11.3447C15.168 6.99634 12.7634 3.42416 12.3975 2.88961C16.596 1.78555 21.0204 2.9762 24.2763 6.1275ZM9.87131 3.86045C10.2204 4.38266 12.5862 7.95927 14.7799 12.2133C8.58694 14.0074 3.13238 13.9816 2.54025 13.973C3.39875 9.49125 6.16737 5.76634 9.87131 3.86045ZM2.26062 16.9311C2.26062 16.7834 2.26331 16.6364 2.26737 16.4898C2.84662 16.5027 9.26237 16.5929 15.874 14.4344C16.253 15.2435 16.6151 16.0649 16.9474 16.8854C12.1599 18.3565 7.81025 22.5805 5.66419 26.5881C3.54962 24.0276 2.26062 20.6407 2.26062 16.9311ZM7.37356 28.3252C8.7565 25.2411 12.5097 21.26 17.8472 19.2736C19.706 24.5429 20.4747 28.9591 20.6716 30.2262C16.4146 32.2044 11.2956 31.6617 7.37356 28.3252ZM22.8973 28.904C22.7616 28.0254 22.0569 23.7974 20.3253 18.6063C24.4741 17.8818 28.1191 19.0677 28.572 19.2237C27.9819 23.2424 25.8674 26.713 22.8973 28.904Z" fill="black"/>
</svg>
