<svg width="33" height="31" viewBox="0 0 33 31" fill="none" xmlns="http://www.w3.org/2000/svg">
<path d="M16.0126 7.44375C11.4698 7.44375 7.80547 10.9415 7.80547 15.2778C7.80547 19.6142 11.4698 23.1119 16.0126 23.1119C20.5555 23.1119 24.2197 19.6142 24.2197 15.2778C24.2197 10.9415 20.5555 7.44375 16.0126 7.44375ZM16.0126 20.371C13.0769 20.371 10.6769 18.0869 10.6769 15.2778C10.6769 12.4687 13.0698 10.1847 16.0126 10.1847C18.9555 10.1847 21.3483 12.4687 21.3483 15.2778C21.3483 18.0869 18.9483 20.371 16.0126 20.371ZM26.4697 7.12329C26.4697 8.1392 25.6126 8.95057 24.5555 8.95057C23.4912 8.95057 22.6412 8.13239 22.6412 7.12329C22.6412 6.1142 23.4983 5.29602 24.5555 5.29602C25.6126 5.29602 26.4697 6.1142 26.4697 7.12329ZM31.9054 8.97784C31.784 6.53011 31.1983 4.36193 29.3197 2.57557C27.4483 0.789204 25.1769 0.230114 22.6126 0.107386C19.9697 -0.0357955 12.0483 -0.0357955 9.40547 0.107386C6.84833 0.223295 4.5769 0.782386 2.69833 2.56875C0.819764 4.35511 0.241193 6.52329 0.112622 8.97102C-0.0373779 11.4937 -0.0373779 19.0551 0.112622 21.5778C0.23405 24.0256 0.819764 26.1937 2.69833 27.9801C4.5769 29.7665 6.84119 30.3256 9.40547 30.4483C12.0483 30.5915 19.9697 30.5915 22.6126 30.4483C25.1769 30.3324 27.4483 29.7733 29.3197 27.9801C31.1912 26.1937 31.7769 24.0256 31.9054 21.5778C32.0554 19.0551 32.0554 11.5006 31.9054 8.97784ZM28.4912 24.2847C27.934 25.621 26.8555 26.6506 25.4483 27.1892C23.3412 27.9869 18.3412 27.8028 16.0126 27.8028C13.684 27.8028 8.6769 27.9801 6.5769 27.1892C5.1769 26.6574 4.09833 25.6278 3.53405 24.2847C2.69833 22.2733 2.89119 17.5006 2.89119 15.2778C2.89119 13.0551 2.70548 8.27557 3.53405 6.27102C4.09119 4.93466 5.16976 3.90511 6.5769 3.36648C8.68404 2.56875 13.684 2.75284 16.0126 2.75284C18.3412 2.75284 23.3483 2.57557 25.4483 3.36648C26.8483 3.89829 27.9269 4.92784 28.4912 6.27102C29.3269 8.28239 29.134 13.0551 29.134 15.2778C29.134 17.5006 29.3269 22.2801 28.4912 24.2847Z" fill="black"/>
</svg>
