<svg width="216" height="161" viewBox="0 0 216 161" fill="none" xmlns="http://www.w3.org/2000/svg">
<g clip-path="url(#clip0)">
<path d="M215.461 141.084H-6.10352e-05V141.192H215.461V141.084Z" fill="#EBEBEB"/>
<path d="M193.872 148.017H179.6V148.125H193.872V148.017Z" fill="#EBEBEB"/>
<path d="M142.73 149.189H138.985V149.297H142.73V149.189Z" fill="#EBEBEB"/>
<path d="M179.169 144.019H170.899V144.126H179.169V144.019Z" fill="#EBEBEB"/>
<path d="M41.2177 144.742H22.6061V144.85H41.2177V144.742Z" fill="#EBEBEB"/>
<path d="M47.7849 144.742H45.0572V144.85H47.7849V144.742Z" fill="#EBEBEB"/>
<path d="M97.022 146.561H56.6534V146.669H97.022V146.561Z" fill="#EBEBEB"/>
<path d="M102.128 121.865H18.9218C18.2699 121.864 17.6452 121.604 17.1847 121.143C16.7242 120.681 16.4655 120.056 16.4655 119.404V2.43902C16.4712 1.79092 16.7323 1.17124 17.1922 0.714563C17.6521 0.257889 18.2737 0.00111022 18.9218 0H102.128C102.781 0 103.407 0.259237 103.868 0.720683C104.33 1.18213 104.589 1.80798 104.589 2.46056V119.404C104.589 120.057 104.33 120.683 103.868 121.144C103.407 121.606 102.781 121.865 102.128 121.865ZM18.9218 0.0861847C18.2985 0.0873262 17.7012 0.335716 17.2609 0.776835C16.8205 1.21795 16.5732 1.81575 16.5732 2.43902V119.404C16.5732 120.027 16.8205 120.625 17.2609 121.066C17.7012 121.507 18.2985 121.756 18.9218 121.757H102.128C102.752 121.756 103.35 121.508 103.791 121.067C104.232 120.626 104.48 120.028 104.481 119.404V2.43902C104.48 1.81536 104.232 1.21757 103.791 0.776572C103.35 0.335576 102.752 0.0873238 102.128 0.0861847H18.9218Z" fill="#EBEBEB"/>
<path d="M195.341 121.865H112.13C111.478 121.864 110.853 121.604 110.392 121.143C109.93 120.682 109.671 120.056 109.67 119.404V2.43902C109.676 1.79053 109.939 1.17085 110.399 0.714293C110.86 0.257738 111.482 0.00109811 112.13 0H195.341C195.989 0.00224273 196.609 0.259522 197.068 0.716075C197.527 1.17263 197.787 1.79167 197.793 2.43902V119.404C197.793 120.055 197.535 120.68 197.075 121.141C196.616 121.602 195.992 121.862 195.341 121.865ZM112.13 0.0861847C111.507 0.0873238 110.909 0.335576 110.468 0.776572C110.027 1.21757 109.778 1.81536 109.777 2.43902V119.404C109.778 120.028 110.027 120.626 110.468 121.067C110.909 121.508 111.507 121.756 112.13 121.757H195.341C195.965 121.756 196.563 121.508 197.004 121.067C197.445 120.626 197.693 120.028 197.694 119.404V2.43902C197.693 1.81536 197.445 1.21757 197.004 0.776572C196.563 0.335576 195.965 0.0873238 195.341 0.0861847H112.13Z" fill="#EBEBEB"/>
<path d="M131.647 14.6514H85.6113V75.4199H131.647V14.6514Z" fill="#F5F5F5"/>
<path d="M101.267 21.1151V47.8323L111.91 47.2333L113.134 21.1151H101.267Z" fill="#EBEBEB"/>
<path d="M109.885 26.2864H126.26L126.118 49.6723L117.637 49.8059L109.885 26.2864Z" fill="#E0E0E0"/>
<path d="M93.9409 22.8389H98.2502L96.742 43.7041L91.3554 45.0356L93.9409 22.8389Z" fill="#E6E6E6"/>
<path d="M71.8907 4.9126H25.9974V60.7559H71.8907V4.9126Z" fill="#E0E0E0"/>
<path d="M57.9461 12.7123L33.8275 36.4173L59.9197 40.7222L57.9461 12.7123Z" fill="#EBEBEB"/>
<path d="M47.7849 32.944L48.2934 51.1504L65.931 44.9968V31.0264L47.7849 32.944Z" fill="#F0F0F0"/>
<path d="M44.4261 53.5994C47.2886 50.7369 47.2886 46.0959 44.4261 43.2333C41.5635 40.3708 36.9225 40.3708 34.06 43.2333C31.1974 46.0959 31.1974 50.7369 34.06 53.5994C36.9225 56.4619 41.5635 56.4619 44.4261 53.5994Z" fill="#E6E6E6"/>
<path d="M58.9286 24.9932C60.892 24.9932 62.4836 23.4016 62.4836 21.4382C62.4836 19.4749 60.892 17.8833 58.9286 17.8833C56.9651 17.8833 55.3735 19.4749 55.3735 21.4382C55.3735 23.4016 56.9651 24.9932 58.9286 24.9932Z" fill="#F5F5F5"/>
<path d="M37.5161 11.6349L47.7849 17.8832L39.1536 24.9934L37.5161 11.6349Z" fill="#F5F5F5"/>
<path d="M140.196 63.3455L186.089 63.3455V7.50232L140.196 7.50232V63.3455Z" fill="#E6E6E6"/>
<path d="M150.693 49.5129L174.812 25.808L148.72 21.5031L150.693 49.5129Z" fill="#E0E0E0"/>
<path d="M174.23 43.8893L175.424 25.7131L157.265 30.1732L155.946 44.0833L174.23 43.8893Z" fill="#F0F0F0"/>
<path d="M150.474 25.644C154.522 25.644 157.804 22.3623 157.804 18.3141C157.804 14.266 154.522 10.9843 150.474 10.9843C146.425 10.9843 143.144 14.266 143.144 18.3141C143.144 22.3623 146.425 25.644 150.474 25.644Z" fill="#FAFAFA"/>
<path d="M175.411 53.9299C177.375 53.9299 178.966 52.3383 178.966 50.3749C178.966 48.4115 177.375 46.8198 175.411 46.8198C173.448 46.8198 171.856 48.4115 171.856 50.3749C171.856 52.3383 173.448 53.9299 175.411 53.9299Z" fill="#E0E0E0"/>
<path d="M174.571 56.623L164.302 50.3748L172.933 43.2646L174.571 56.623Z" fill="#F5F5F5"/>
<path d="M162.44 14.6041H160.424V59.1958H162.44V14.6041Z" fill="#E0E0E0"/>
<path d="M181.78 14.6041H179.169V57.2222H181.78V14.6041Z" fill="#EBEBEB"/>
<path d="M158.14 44.0835H144.798V57.425H158.14V44.0835Z" fill="#EBEBEB"/>
<path d="M107.73 160.544C153.875 160.544 191.282 158.36 191.282 155.666C191.282 152.972 153.875 150.788 107.73 150.788C61.5862 150.788 24.179 152.972 24.179 155.666C24.179 158.36 61.5862 160.544 107.73 160.544Z" fill="#F5F5F5"/>
<path d="M111.186 154.27H108.39L100.116 115.336L94.6305 89.5369L94.3331 117.53L93.941 154.27H90.9245V90.2479L84.4435 121.279L77.553 154.27H74.7563L81.1426 122.533L91.14 72.8257H94.8028L103.124 114.194L111.186 154.27Z" fill="#2E353A"/>
<path opacity="0.2" d="M111.186 154.27H108.39L100.116 115.336L94.6305 89.5369L94.3331 117.53L93.941 154.27H90.9245V90.2479L84.4435 121.279L77.553 154.27H74.7563L81.1426 122.533L91.14 72.8257H94.8028L103.124 114.194L111.186 154.27Z" fill="white"/>
<path opacity="0.2" d="M103.124 114.194L100.116 115.336L94.6305 89.5368L94.3331 117.529L90.9245 118.822V90.2478L84.4435 121.278L81.1426 122.532L91.14 72.8257H94.8028L103.124 114.194Z" fill="black"/>
<path d="M129.716 106.218H81.0047L71.895 37.9514H120.606L129.716 106.218Z" fill="#2E353A"/>
<path opacity="0.4" d="M129.716 106.218H81.0047L71.895 37.9514H120.606L129.716 106.218Z" fill="white"/>
<path d="M130.147 104.059H84.0297L75.407 39.4336H121.524L130.147 104.059Z" fill="#90CAF9"/>
<path opacity="0.8" d="M130.147 104.059H84.0297L75.407 39.4336H121.524L130.147 104.059Z" fill="white"/>
<path d="M113.871 74.6917L90.4117 102.128H124.967L113.871 74.6917Z" fill="#90CAF9"/>
<path opacity="0.2" d="M105.882 84.0339L112.759 92.9281L110.889 96.9573L106.007 92.8333L105.882 83.4263" fill="white"/>
<path opacity="0.1" d="M114.927 77.303L110.889 102.128L102.141 88.4122L105.882 75.1829L114.927 77.303Z" fill="white"/>
<path d="M108.687 83.228C103.736 85.0336 97.4056 83.4866 93.2084 79.2334C85.1803 71.1019 82.3061 50.5598 95.6647 47.4012C104.481 45.3155 111.91 50.5555 114.845 61.3889C115.54 64.019 115.963 66.7134 116.108 69.4299C116.564 77.1348 113.203 81.5862 108.687 83.228Z" fill="#90CAF9"/>
<path d="M85.1803 74.7517L92.7904 61.781L96.9272 76.2212L85.1803 74.7517Z" fill="#90CAF9"/>
<path d="M98.2502 62.6428C98.2502 62.6428 101.124 57.1318 107.299 63.5433C107.299 63.5433 101.84 69.119 98.2502 62.6428Z" fill="#90CAF9"/>
<path d="M106.007 56.4507H93.51L94.2297 59.1611L106.007 56.4507Z" fill="#90CAF9"/>
<path d="M89.2009 57.8081L92.7904 61.7812L88.1149 70.7012L84.4608 59.1612L89.2009 57.8081Z" fill="#90CAF9"/>
<path opacity="0.2" d="M114.625 77.9709C110.579 85.9084 99.5085 85.6025 93.2214 79.2335C85.1804 71.102 82.3062 50.56 95.6647 47.4013C104.942 45.2036 112.682 51.1245 115.272 63.1342C115.272 63.1342 107.873 70.9986 108.592 76.6523L109.312 82.3059C111.486 81.4401 113.341 79.9267 114.625 77.9709Z" fill="white"/>
<path opacity="0.2" d="M85.1803 74.7517L92.7904 61.781L96.9272 76.2212L85.1803 74.7517Z" fill="white"/>
<path opacity="0.2" d="M106.007 56.4507H93.51L94.2297 59.1611L106.007 56.4507Z" fill="white"/>
<path d="M89.2009 57.8081L92.7904 61.7812L88.1149 70.7012L84.4608 59.1612L89.2009 57.8081Z" fill="#90CAF9"/>
<path d="M93.51 82.3059L96.9272 77.9408L99.7584 78.7595L102.128 75.8423L108.592 76.6352C108.592 76.6352 108.881 86.0419 93.51 82.3059Z" fill="#90CAF9"/>
<path opacity="0.2" d="M93.51 82.3059L108.592 76.6519C108.592 76.6519 106.541 84.8915 93.51 82.3059Z" fill="white"/>
<path d="M103.563 59.1609L99.7584 63.5435L103.563 66.9392L106.007 63.5435L103.563 59.1609Z" fill="#90CAF9"/>
<path opacity="0.2" d="M98.2502 62.6428C98.2502 62.6428 101.124 57.1318 107.299 63.5433C107.299 63.5433 101.84 69.119 98.2502 62.6428Z" fill="white"/>
<path d="M89.2009 51.5422C89.2009 51.5422 85.3225 47.1125 85.1803 44.0961C85.0381 41.0798 104.675 41.6572 110.889 44.0961C110.889 44.0961 108.881 49.2153 110.889 53.9812C110.889 53.9812 100.405 48.0734 89.2009 51.5422Z" fill="#90CAF9"/>
<path d="M111.811 65.7757C111.811 65.7757 118.792 61.0743 120.085 62.6429C121.378 64.2114 122.524 71.6277 121.089 72.0844C119.654 72.5412 112.613 70.1453 112.613 70.1453L111.811 65.7757Z" fill="#90CAF9"/>
<path opacity="0.2" d="M118.719 68.4216L117.831 73.4592L121.753 74.1357L123.675 70.9038L118.719 68.4216Z" fill="white"/>
<path opacity="0.1" d="M108.687 83.228L108.597 82.8876C105.365 70.1668 111.557 63.7805 114.845 61.3889C115.54 64.0191 115.963 66.7135 116.108 69.4299C116.564 77.1348 113.203 81.5862 108.687 83.228Z" fill="white"/>
<path d="M57.6573 130.281C56.2612 127.967 55.2183 126.071 55.4683 125.002C56.2094 121.8 59.0363 120.874 59.8507 115.987C60.6523 111.178 54.2962 105.322 54.1109 105.145C54.1109 105.145 63.3498 87.9081 58.3942 80.7979C58.2434 80.5824 58.0969 80.3669 57.9633 80.1687C53.3309 73.5928 51.4391 72.1449 51.4391 72.1449L54.1238 66.7326L52.831 65.5389L50.267 63.1387L46.755 67.5556L48.0478 70.5462L48.7071 72.0889C48.7071 72.0889 41.1531 79.7205 40.9634 85.4992C40.7738 91.2779 45.389 100.439 45.389 100.439C45.389 100.439 40.8212 105.679 38.6408 109.842C37.5247 111.997 37.0378 113.845 38.1366 114.552C40.7221 116.215 43.5921 121.072 42.5363 127.518C42.2379 129.267 41.709 130.968 40.9634 132.577C38.6235 137.697 38.9726 141.515 39.6965 143.829C39.961 144.767 40.3899 145.652 40.9634 146.44L62.9146 145.863C64.6383 141.131 60.4411 134.879 57.6573 130.281ZM50.267 74.5193C50.267 74.5193 56.0931 80.0006 56.593 84.0642C56.6686 84.7817 56.6512 85.5059 56.5413 86.2188C56.0198 90.2264 53.4343 95.2036 53.4343 95.2036V92.6827V88.632L50.2455 83.4265L47.1644 89.4594L48.0262 95.2036C48.0262 95.2036 45.514 92.1569 45.3675 86.5851C45.221 81.0133 50.267 74.5193 50.267 74.5193Z" fill="#90CAF9"/>
<path opacity="0.2" d="M57.6573 130.281C56.2612 127.967 55.2183 126.071 55.4683 125.002C56.2094 121.8 59.0363 120.874 59.8507 115.987C60.6523 111.178 54.2962 105.322 54.1109 105.145C54.1109 105.145 63.3498 87.9081 58.3942 80.7979C58.2434 80.5824 58.0969 80.3669 57.9633 80.1687C53.3309 73.5928 51.4391 72.1449 51.4391 72.1449L54.1238 66.7326L52.831 65.5389L50.267 63.1387L46.755 67.5556L48.0478 70.5462L48.7071 72.0889C48.7071 72.0889 41.1531 79.7205 40.9634 85.4992C40.7738 91.2779 45.389 100.439 45.389 100.439C45.389 100.439 40.8212 105.679 38.6408 109.842C37.5247 111.997 37.0378 113.845 38.1366 114.552C40.7221 116.215 43.5921 121.072 42.5363 127.518C42.2379 129.267 41.709 130.968 40.9634 132.577C38.6235 137.697 38.9726 141.515 39.6965 143.829C39.961 144.767 40.3899 145.652 40.9634 146.44L62.9146 145.863C64.6383 141.131 60.4411 134.879 57.6573 130.281ZM50.267 74.5193C50.267 74.5193 56.0931 80.0006 56.593 84.0642C56.6686 84.7817 56.6512 85.5059 56.5413 86.2188C56.0198 90.2264 53.4343 95.2036 53.4343 95.2036V92.6827V88.632L50.2455 83.4265L47.1644 89.4594L48.0262 95.2036C48.0262 95.2036 45.514 92.1569 45.3675 86.5851C45.221 81.0133 50.267 74.5193 50.267 74.5193Z" fill="white"/>
<path opacity="0.2" d="M56.5412 86.2273C56.6512 85.5144 56.6685 84.7902 56.5929 84.0728C56.0931 80.0092 50.267 74.5279 50.267 74.5279C50.267 74.5279 45.2468 81.0132 45.389 86.585C45.5312 92.1568 48.0478 95.2034 48.0478 95.2034L47.1859 89.4592L50.267 83.4264L53.4558 88.6319V92.6825C47.7246 102.357 38.6623 109.846 38.6623 109.846C40.8428 105.683 45.4105 100.443 45.4105 100.443C45.4105 100.443 40.791 91.282 40.985 85.5034C41.1789 79.7248 48.6941 72.0846 48.6941 72.0846L48.0348 70.5419C49.8706 68.5726 51.5382 66.849 52.831 65.5347L54.1237 66.7283L51.4391 72.1406C51.4391 72.1406 53.3309 73.5885 57.9633 80.1643C57.7517 82.238 57.2738 84.2758 56.5412 86.2273Z" fill="black"/>
<path opacity="0.2" d="M55.4683 125.002C55.2183 126.07 56.2612 127.967 57.6574 130.281C56.9798 131.288 56.249 132.259 55.4683 133.189C49.5172 140.338 43.8334 143.256 39.6965 143.829C38.9726 141.515 38.6235 137.697 40.9634 132.577C41.709 130.968 42.2379 129.267 42.5363 127.518C48.3925 117.831 54.1065 105.145 54.1065 105.145C54.3005 105.321 60.648 111.178 59.8464 115.987C59.0363 120.874 56.2094 121.8 55.4683 125.002Z" fill="black"/>
<path d="M67.7969 144.514H35.0469V154.163H67.7969V144.514Z" fill="#2E353A"/>
<path opacity="0.2" d="M67.7969 144.514H45.389V154.163H67.7969V144.514Z" fill="white"/>
<path d="M176.536 82.3062C176.536 82.3062 179.47 91.7863 175.812 92.618C172.153 93.4497 173.373 82.3062 173.373 82.3062H176.536Z" fill="#E4897B"/>
<path opacity="0.1" d="M176.536 82.3062C176.536 82.3062 179.47 91.7863 175.812 92.618C172.153 93.4497 173.373 82.3062 173.373 82.3062H176.536Z" fill="black"/>
<path d="M164.888 76.3034C165.19 72.5112 168.641 69.1715 172.274 68.426C176.2 67.6202 179.884 70.5807 181.25 74.1014C182.616 77.6221 181.461 84.6376 176.221 83.25C174.213 82.7199 172.675 81.3108 170.619 80.7894C168.839 80.3326 166.788 80.1085 165.56 78.5701C165.049 77.9311 164.808 77.1177 164.888 76.3034Z" fill="#90CAF9"/>
<path opacity="0.6" d="M181.25 74.119C179.884 70.5897 176.2 67.6551 172.274 68.4437C168.641 69.1892 165.19 72.5289 164.888 76.321C164.808 77.1353 165.049 77.9487 165.56 78.5877C166.788 80.1261 168.839 80.3502 170.619 80.8069C172.675 81.3284 174.213 82.7375 176.221 83.2675C181.461 84.6379 182.62 77.6353 181.25 74.119ZM172.722 71.3309C172.489 70.4691 174.558 69.5727 175.424 70.6587C176.29 71.7446 173.498 74.119 172.722 71.3137V71.3309ZM176.049 73.2701C176.251 72.4082 178.505 72.6108 178.742 73.9768C178.979 75.3428 175.385 76.0883 176.049 73.2571V73.2701ZM177.122 76.9243C177.6 76.1917 179.656 77.1355 179.414 78.5015C179.173 79.8675 175.532 79.3504 177.109 76.9071L177.122 76.9243Z" fill="white"/>
<path opacity="0.2" d="M176.049 73.2567C176.251 72.3949 178.505 72.5974 178.742 73.9634C178.979 75.3295 175.385 76.0879 176.049 73.2567Z" fill="white"/>
<path opacity="0.4" d="M177.109 76.9067C177.587 76.1742 179.643 77.1179 179.401 78.4839C179.16 79.85 175.532 79.3501 177.109 76.9067Z" fill="white"/>
<path d="M170.408 72.9382C171.938 74.119 176.837 87.4775 177.191 89.8476C177.544 92.2177 176.105 94.3723 173.373 91.3558C170.641 88.3394 166.478 80.0097 166.478 80.0097L170.408 72.9382Z" fill="#E4897B"/>
<path d="M122.813 139.619L124.86 140.589C124.86 140.589 138.218 108.269 140.373 108.179C142.527 108.088 164.466 118.172 169.964 112.579C175.463 106.985 167.521 93.5102 167.521 93.5102C167.521 93.5102 154.296 91.6228 153.3 94.6091C153.055 95.4894 152.868 96.3847 152.74 97.2894C152.589 98.203 152.486 98.97 152.486 98.97C152.077 98.8666 140.524 95.4408 135.292 98.97C129.97 102.56 122.813 139.619 122.813 139.619Z" fill="#E4897B"/>
<path d="M160.475 113.927C160.475 113.927 145.914 113.117 140.968 115.884C140.968 115.884 143.471 137.106 144.604 150.09L142.178 150.366C142.178 150.366 131.836 115.668 131.944 111.251C132.052 106.834 140.132 106.403 140.132 106.403C140.132 106.403 150.017 112.113 160.475 113.927Z" fill="#E4897B"/>
<g opacity="0.1">
<path opacity="0.1" d="M160.475 113.927C160.475 113.927 145.914 113.117 140.968 115.884C140.968 115.884 143.471 137.106 144.604 150.09L142.178 150.366C142.178 150.366 131.836 115.668 131.944 111.251C132.052 106.834 140.132 106.403 140.132 106.403C140.132 106.403 150.017 112.113 160.475 113.927Z" fill="black"/>
</g>
<path d="M145.565 109.123L149.776 115.056L160.475 113.927L145.565 109.123Z" fill="#90CAF9"/>
<path opacity="0.4" d="M145.565 109.123L149.776 115.056L160.475 113.927L145.565 109.123Z" fill="white"/>
<path d="M145.264 149.259C145.264 148.935 141.308 149.237 141.308 149.237C141.308 149.237 138.908 151.736 136.568 152.318C134.228 152.9 135.551 154.3 138.188 154.27L144.712 154.193C146.574 154.167 145.38 152.585 145.264 149.259Z" fill="#2E353A"/>
<path d="M139.231 150.271C139.112 150.281 138.993 150.249 138.895 150.181C138.834 150.129 138.792 150.059 138.774 149.982C138.755 149.905 138.761 149.824 138.791 149.75C138.806 149.694 138.832 149.641 138.867 149.595C138.903 149.549 138.947 149.511 138.998 149.483C139.278 149.363 139.586 149.326 139.886 149.375C139.563 149.207 139.278 149.005 139.261 148.793C139.261 148.66 139.339 148.548 139.52 148.462C139.598 148.421 139.684 148.398 139.771 148.395C139.859 148.391 139.947 148.406 140.028 148.44C140.567 148.656 140.89 149.5 140.924 149.547C140.959 149.595 140.924 149.522 140.924 149.522V149.591C140.924 149.591 140.924 149.547 140.924 149.556V149.522C140.924 149.522 140.924 149.638 140.894 149.647C140.662 149.754 139.778 150.271 139.231 150.271ZM139.597 149.578C139.429 149.568 139.26 149.599 139.106 149.668C139.078 149.683 139.054 149.703 139.035 149.727C139.016 149.752 139.002 149.78 138.994 149.81C138.955 149.965 138.994 150.004 139.024 150.017C139.214 150.168 139.933 149.944 140.511 149.69C140.218 149.624 139.919 149.587 139.619 149.578H139.597ZM139.795 148.612C139.731 148.613 139.668 148.628 139.61 148.656C139.558 148.681 139.468 148.733 139.472 148.789C139.472 148.966 140.05 149.267 140.64 149.483C140.507 149.136 140.265 148.841 139.95 148.643C139.901 148.622 139.849 148.612 139.795 148.612Z" fill="#90CAF9"/>
<path d="M125.95 139.425C126.019 139.11 122.119 138.434 122.119 138.434C122.119 138.434 119.18 140.265 116.758 140.252C114.337 140.239 115.285 141.924 117.849 142.545L124.187 144.07C126.01 144.51 125.247 142.683 125.95 139.425Z" fill="#2E353A"/>
<path d="M120.326 138.972C120.188 138.991 120.048 138.981 119.914 138.944C119.779 138.906 119.654 138.841 119.546 138.753C119.501 138.69 119.477 138.614 119.477 138.537C119.477 138.46 119.501 138.385 119.546 138.322C119.574 138.27 119.612 138.225 119.658 138.189C119.704 138.152 119.757 138.126 119.814 138.111C120.113 138.067 120.419 138.107 120.697 138.227C120.425 137.986 120.197 137.714 120.236 137.512C120.262 137.378 120.369 137.292 120.568 137.249C120.643 137.23 120.721 137.229 120.797 137.248C120.872 137.267 120.941 137.304 120.999 137.357C121.468 137.697 121.511 138.671 121.511 138.714V138.757H121.645H121.52C121.52 138.757 121.576 138.757 121.567 138.757C121.559 138.757 121.589 138.757 121.567 138.757C121.567 138.757 121.567 138.796 121.533 138.8C121.137 138.897 120.733 138.955 120.326 138.972ZM120.033 138.292C119.981 138.292 119.929 138.299 119.878 138.313C119.848 138.321 119.821 138.334 119.796 138.353C119.772 138.371 119.751 138.394 119.736 138.421C119.663 138.563 119.701 138.61 119.714 138.628C119.861 138.822 120.615 138.779 121.236 138.675C120.862 138.473 120.454 138.343 120.033 138.292ZM120.714 137.43H120.615C120.559 137.43 120.46 137.473 120.451 137.529C120.417 137.701 120.882 138.132 121.412 138.486C121.368 138.117 121.207 137.772 120.951 137.503C120.878 137.465 120.795 137.451 120.714 137.464V137.43Z" fill="#90CAF9"/>
<path d="M142.803 96.9578C142.803 96.9578 141.773 106.007 143.712 109.579C143.712 109.579 152.477 114.212 161.454 114.643C170.43 115.074 177.113 111.316 167.521 93.5277C167.521 93.5277 164.741 91.373 159.988 91.373C155.235 91.373 153.3 94.6308 153.3 94.6308L151.633 97.9446L142.803 96.9578Z" fill="#90CAF9"/>
<path opacity="0.6" d="M142.803 96.9578C142.803 96.9578 141.773 106.007 143.712 109.579C143.712 109.579 152.477 114.212 161.454 114.643C170.43 115.074 177.113 111.316 167.521 93.5277C167.521 93.5277 164.741 91.373 159.988 91.373C155.235 91.373 153.3 94.6308 153.3 94.6308L151.633 97.9446L142.803 96.9578Z" fill="white"/>
<path d="M153.693 56.4207C153.693 56.4207 151.9 56.3991 151.469 54.1067C151.038 51.8142 153.15 51.3359 153.693 51.6117" stroke="#2E353A" stroke-width="0.5" stroke-linecap="round" stroke-linejoin="round"/>
<path d="M158.105 66.9093C157.636 67.0832 157.144 67.1892 156.644 67.2239C155.627 67.2239 154.826 67.0903 154.197 66.6206C152.775 65.5562 152.258 63.2034 152.219 60.299C152.158 56.5069 153.171 54.4471 156.83 54.1326C162.888 53.6112 164.203 65.0046 158.105 66.9093Z" fill="#E4897B"/>
<path opacity="0.2" d="M159.669 65.1512C158.856 66.0861 157.818 66.7993 156.653 67.2239C155.636 67.2239 154.835 67.0946 154.205 66.6249C156.037 65.1253 159.669 65.1512 159.669 65.1512Z" fill="black"/>
<path d="M154.361 56.1105C154.361 56.1105 152.495 59.8983 155.675 62.0529C155.675 62.0529 157.855 65.6726 161.367 65.1856C164.879 64.6987 166.969 59.2131 164.642 54.4428C162.445 49.9182 154.951 52.4261 154.951 52.4261C151.753 50.9739 150.456 55.128 152.831 56.4251C153.294 56.1583 153.83 56.048 154.361 56.1105Z" fill="#2E353A"/>
<path d="M157.467 61.9111C156.416 60.8338 153.262 56.1799 154.951 52.4309C154.951 52.4309 157.933 51.2157 160.053 51.763C160.053 51.763 157.407 60.6269 163.117 64.3242C160.989 64.2983 158.958 63.4306 157.467 61.9111Z" fill="#90CAF9"/>
<path d="M162.639 64.1343C162.639 64.1343 164.793 62.3417 166.478 64.9962C166.478 64.9962 164.685 65.6728 163.285 64.7635C163.285 64.7635 163.785 65.5435 163.427 66.9397C163.427 66.9397 161.919 66.3967 162.639 64.1343Z" fill="#90CAF9"/>
<path d="M155.658 61.4197C155.658 61.4197 155.709 63.6347 157.149 64.8672" stroke="#2E353A" stroke-width="0.5" stroke-linecap="round" stroke-linejoin="round"/>
<path d="M154.395 60.9325C154.352 60.2689 154.852 59.1055 155.964 59.1658C157.075 59.2262 157.92 61.7986 155.153 62.6131C154.757 62.7423 154.481 62.3157 154.395 60.9325Z" fill="#E4897B"/>
<path d="M162.458 55.1925C162.458 55.1925 162.975 52.2838 166.06 52.1761C169.145 52.0684 168.646 54.9081 169.507 55.5157C170.369 56.1233 170.908 55.6622 171.554 56.5586C172.201 57.4549 171.197 58.4977 171.231 59.394C171.266 60.2903 172.382 60.4713 172.382 61.6951C172.382 62.919 171.089 63.0224 170.624 64.4961C170.158 65.9699 171.016 66.0819 171.016 66.9395C171.016 67.797 170.731 68.3356 169.654 68.3012C169.654 68.3012 170.542 67.797 169.956 67.2239C169.37 66.6507 167.844 66.1121 167.417 64.9615C166.991 63.811 168.9 62.557 167.137 61.3332C165.375 60.1094 164.444 60.941 163.798 58.5322C163.151 56.1233 162.458 55.1925 162.458 55.1925Z" fill="#2E353A"/>
<path d="M157.791 72.9895C160.458 73.317 161.996 70.3696 161.996 70.3696C159.48 68.646 160.984 65.1514 160.984 65.1514C158.545 64.1388 156.7 66.1856 156.7 66.1856C156.885 66.7491 157.029 67.3251 157.131 67.9092C157.562 70.4386 156.416 70.6368 156.416 70.6368C156.318 70.8807 156.277 71.1439 156.296 71.4062C156.315 71.6685 156.394 71.923 156.527 72.15C156.659 72.3771 156.842 72.5708 157.061 72.7163C157.28 72.8618 157.53 72.9553 157.791 72.9895Z" fill="#E4897B"/>
<path d="M167.521 93.51C167.521 93.51 167.822 79.2897 170.408 72.9336C168.108 71.5913 165.662 70.517 163.117 69.7319C158.342 68.2883 152.43 67.5773 150.62 68.2969C150.62 68.2969 149.388 84.6718 153.292 94.6088C153.3 94.6131 158.502 94.4838 167.521 93.51Z" fill="#90CAF9"/>
<path opacity="0.2" d="M167.521 93.51C167.521 93.51 167.822 79.2897 170.408 72.9336C168.108 71.5913 165.662 70.517 163.117 69.7319C158.342 68.2883 152.43 67.5773 150.62 68.2969C150.62 68.2969 149.388 84.6718 153.292 94.6088C153.3 94.6131 158.502 94.4838 167.521 93.51Z" fill="black"/>
<path d="M130.138 58.2221C129.578 57.511 117.706 62.1005 117.706 62.1005L117.831 62.3806C117.831 62.3806 130.569 58.7694 130.138 58.2221Z" fill="#2E353A"/>
<path d="M117.706 62.1219C117.359 62.0296 116.994 62.0296 116.646 62.1219C116.43 62.1694 116.204 62.1366 116.011 62.0295C115.817 61.9224 115.669 61.7484 115.595 61.54C115.595 61.54 116.082 63.8589 117.831 62.4021L117.706 62.1219Z" fill="#90CAF9"/>
<path d="M152.064 68.3013C149.28 66.862 139.377 73.9766 137.249 73.7611C134.004 73.4293 128.893 62.6433 128.893 62.6433L126.691 63.5439C126.691 63.5439 130.643 77.2085 135.598 78.5702C139.52 79.6518 150.474 75.7735 150.469 75.4116C150.469 75.4116 155.343 69.9992 152.064 68.3013Z" fill="#E4897B"/>
<path d="M129.134 63.1344C129.134 63.1344 127.911 59.5707 127.337 58.4762C126.764 57.3817 123.748 60.1094 123.675 60.9022C123.601 61.6951 126.764 64.9959 127.411 64.8537C128.057 64.7115 129.134 63.1344 129.134 63.1344Z" fill="#E4897B"/>
<path d="M157.459 117.211L157.614 123.92L158.321 154.271H160.652L161.354 123.92L161.509 117.211H157.459Z" fill="#263238"/>
<path opacity="0.1" d="M157.459 117.211L157.614 123.92L158.321 154.271H160.652L161.354 123.92L161.509 117.211H157.459Z" fill="white"/>
<path opacity="0.2" d="M157.459 117.211L157.614 124.106H161.354L161.509 117.211H157.459Z" fill="black"/>
<path d="M144.798 154.162L146.953 117.685H150.474L147.457 154.162H144.798Z" fill="#263238"/>
<path opacity="0.2" d="M147.466 154.163H144.803L146.759 120.96L146.953 117.642H150.474L150.202 120.96L147.466 154.163Z" fill="white"/>
<path opacity="0.2" d="M150.474 117.642L150.202 121.089H146.759L146.953 117.642H150.474Z" fill="black"/>
<path d="M171.516 154.162L168.499 117.685H172.02L174.174 154.162H171.516Z" fill="#263238"/>
<path opacity="0.2" d="M171.507 154.163L168.771 120.96L168.499 117.642H172.02L172.214 120.96L174.17 154.163H171.507Z" fill="white"/>
<path opacity="0.2" d="M168.499 117.642L168.771 121.089H172.214L172.02 117.642H168.499Z" fill="black"/>
<path d="M173.903 118.948H145.066V116.073C145.066 115.502 145.293 114.954 145.697 114.55C146.101 114.146 146.649 113.919 147.22 113.919H171.748C172.32 113.919 172.868 114.146 173.272 114.55C173.676 114.954 173.903 115.502 173.903 116.073V118.956V118.948Z" fill="#90CAF9"/>
<path d="M144.553 118.943H174.42C174.898 118.943 175.286 118.555 175.286 118.077V117.293C175.286 116.814 174.898 116.427 174.42 116.427H144.553C144.074 116.427 143.687 116.814 143.687 117.293V118.077C143.687 118.555 144.074 118.943 144.553 118.943Z" fill="#263238"/>
<path opacity="0.4" d="M144.553 118.943H174.42C174.898 118.943 175.286 118.555 175.286 118.077V117.293C175.286 116.814 174.898 116.427 174.42 116.427H144.553C144.074 116.427 143.687 116.814 143.687 117.293V118.077C143.687 118.555 144.074 118.943 144.553 118.943Z" fill="white"/>
<path d="M152.49 96.2292C152.49 96.2292 151.667 95.5139 153.02 93.8635C154.373 92.213 166.293 90.7307 170.408 92.6612L170.356 95.7724C170.356 95.7724 176.51 109.131 177.251 122.597C177.251 122.597 174.101 123.998 170.869 122.597C167.637 121.197 161.001 125.299 157.157 124.377C157.157 124.377 159.889 106.037 156.937 99.6507C156.929 99.6507 155.231 96.0353 152.49 96.2292Z" fill="#2E353A"/>
<path d="M153.107 94.3376C153.107 94.3376 149.263 94.803 149.371 98.7373C149.478 102.672 153.085 105.632 152.171 108.377C152.171 108.377 154.486 109.071 155.671 108.131C155.671 108.131 157.286 104.878 154.809 102.236C152.331 99.5948 150.59 96.7809 153.451 95.7381L153.107 94.3376Z" fill="#2E353A"/>
</g>
<defs>
<clipPath id="clip0">
<rect width="215.461" height="160.544" fill="white"/>
</clipPath>
</defs>
</svg>
