<svg width="32" height="29" viewBox="0 0 32 29" fill="none" xmlns="http://www.w3.org/2000/svg">
<path d="M28.7106 7.06596C28.7309 7.37605 28.7309 7.6862 28.7309 7.99629C28.7309 17.4545 22.132 28.3525 10.0711 28.3525C6.35531 28.3525 2.90356 27.1785 0 25.1407C0.527938 25.2072 1.0355 25.2293 1.58375 25.2293C4.64969 25.2293 7.47206 24.0997 9.72588 22.1726C6.84263 22.1061 4.42638 20.0461 3.59388 17.2109C4 17.2773 4.40606 17.3216 4.8325 17.3216C5.42131 17.3216 6.01019 17.233 6.55838 17.078C3.55331 16.4134 1.29944 13.5339 1.29944 10.0563V9.9677C2.1725 10.4993 3.18781 10.8316 4.26388 10.8758C2.49738 9.59107 1.34006 7.3982 1.34006 4.91734C1.34006 3.58834 1.66488 2.37007 2.23344 1.30684C5.46188 5.64832 10.3147 8.48352 15.7563 8.79368C15.6548 8.26207 15.5938 7.70836 15.5938 7.15459C15.5938 3.21177 18.5177 0 22.1522 0C24.0405 0 25.7461 0.863864 26.9441 2.25934C28.4263 1.94925 29.8476 1.35116 31.1065 0.531614C30.6191 2.19293 29.5836 3.58841 28.2233 4.47436C29.5431 4.31939 30.8223 3.92059 31.9999 3.36689C31.1066 4.78445 29.9898 6.04698 28.7106 7.06596Z" fill="black"/>
</svg>
